<svg width="8000" height="2732" viewBox="0 0 8000 2732" fill="none" xmlns="http://www.w3.org/2000/svg">
<path d="M1368.05 0.0606689C1374.32 -2.0303 1429.46 50.6194 1436.99 57.1808C1444.52 63.7408 1591.36 123.194 1591.36 123.194L1709.76 184.808L1988.96 364.768L2200.76 463.048L2413.63 604.234L2623.36 738.834C2623.7 738.833 2837.26 738.259 2850 735.421C2862.68 732.594 3229.75 546.488 3232.61 545.034L3232.63 545.021L3346.49 547.888L3465.4 429.287L3732.08 316.234L3947.53 237.968L4057.11 347.541L4274.88 524.368L4354.72 567.288L4382.67 582.315L4545.45 698.141L4655.01 751.367L4720.43 775.395L4949.28 660.581L5285.41 602.447L5468.93 507.194C5469.19 507.116 5660.82 447.685 5672.4 463.048C5675.85 467.634 5703.45 464.514 5740.52 457.888C5827.92 442.253 5967.96 407.044 5968.05 407.021L6112.13 396.621L6286.71 488.421L6340.25 516.581L6343.33 517.515L6538.19 576.595L6705.12 627.208L7040.4 515.954L7234.49 403.888L7513.11 328.754L7616.4 369.447L7816.76 538.487L8000 675.194V2731.59H0V926.114L155.479 843.088L201.066 817.088L287.014 768.061L341.281 715.888L389.452 638.261C389.589 638.151 484.089 562.067 496.48 551.541L496.548 551.475C498 550.235 500.854 547.541 504.772 543.768C526.094 523.154 578.839 469.994 609.32 439.101C621.879 426.382 630.652 417.436 631.906 416.088C636.76 410.861 712.759 344.407 712.759 344.407L806.667 260.928L964.08 184.447L1082.15 125.275L1196.29 74.5411L1278.32 31.3683C1278.45 31.3216 1361.81 2.13901 1368.05 0.0606689Z" fill="currentColor"/>
</svg>
